<svg xmlns="http://www.w3.org/2000/svg" height="1707pt" version="1.1" viewBox="0 -61 1707.5 1707" width="1707pt">
<g id="surface1">
<path d="M 640.3125 91.722656 C 640.3125 74.878906 653.960938 61.230469 670.804688 61.230469 L 1036.695312 61.230469 C 1053.539062 61.230469 1067.1875 74.878906 1067.1875 91.722656 L 1067.1875 244.179688 L 1128.167969 244.179688 L 1128.167969 91.722656 C 1128.167969 41.21875 1087.203125 0.25 1036.695312 0.25 L 670.804688 0.25 C 620.296875 0.25 579.332031 41.21875 579.332031 91.722656 L 579.332031 244.179688 L 640.3125 244.179688 Z M 640.3125 91.722656 " style=" stroke:none;fill-rule:nonzero;fill:rgb(0%,0%,0%);fill-opacity:1;" />
<path d="M 1006.207031 1189.402344 C 1006.207031 1273.597656 937.945312 1341.855469 853.75 1341.855469 C 769.554688 1341.855469 701.292969 1273.597656 701.292969 1189.402344 L 701.292969 1087.339844 L 0 778.78125 L 0 1494.3125 C 0 1544.816406 40.96875 1585.785156 91.472656 1585.785156 L 1616.027344 1585.785156 C 1666.53125 1585.785156 1707.5 1544.816406 1707.5 1494.3125 L 1707.5 778.78125 L 1006.207031 1087.339844 Z M 1006.207031 1189.402344 " style=" stroke:none;fill-rule:nonzero;fill:rgb(0%,0%,0%);fill-opacity:1;" />
<path d="M 762.277344 975.964844 L 945.222656 975.964844 L 945.222656 1036.945312 L 762.277344 1036.945312 Z M 762.277344 975.964844 " style=" stroke:none;fill-rule:nonzero;fill:rgb(0%,0%,0%);fill-opacity:1;" />
<path d="M 762.277344 1189.402344 C 762.277344 1239.90625 803.246094 1280.875 853.75 1280.875 C 904.253906 1280.875 945.222656 1239.90625 945.222656 1189.402344 L 945.222656 1097.929688 L 762.277344 1097.929688 Z M 823.257812 1158.910156 L 884.242188 1158.910156 L 884.242188 1219.894531 L 823.257812 1219.894531 Z M 823.257812 1158.910156 " style=" stroke:none;fill-rule:nonzero;fill:rgb(0%,0%,0%);fill-opacity:1;" />
<path d="M 1616.027344 305.160156 L 91.472656 305.160156 C 40.96875 305.160156 0 346.128906 0 396.632812 L 0 712.15625 L 701.292969 1020.691406 L 701.292969 945.472656 C 701.292969 928.628906 714.941406 914.980469 731.785156 914.980469 L 975.714844 914.980469 C 992.558594 914.980469 1006.207031 928.628906 1006.207031 945.472656 L 1006.207031 1020.691406 L 1707.5 712.15625 L 1707.5 396.632812 C 1707.5 346.128906 1666.53125 305.160156 1616.027344 305.160156 Z M 1616.027344 305.160156 " style=" stroke:none;fill-rule:nonzero;fill:rgb(0%,0%,0%);fill-opacity:1;" />
</g>
</svg>