<?xml version="1.0" encoding="utf-8"?>
<!-- Generator: Adobe Illustrator 17.0.2, SVG Export Plug-In . SVG Version: 6.00 Build 0)  -->
<!DOCTYPE svg PUBLIC "-//W3C//DTD SVG 1.1//EN" "http://www.w3.org/Graphics/SVG/1.1/DTD/svg11.dtd">
<svg version="1.1" id="Capa_1" xmlns="http://www.w3.org/2000/svg" xmlns:xlink="http://www.w3.org/1999/xlink" x="0px" y="0px"
	 width="1079.996px" height="1079.996px" viewBox="0 420 1079.996 1079.996" enable-background="new 0 420 1079.996 1079.996"
	 xml:space="preserve">
<g id="Search">
	<path fill="#B2B2B2" d="M1053.564,1345.93l-234.624-234.619c-1.247-1.247-2.71-2.118-4.013-3.279
		c46.166-70.03,73.111-153.859,73.111-244.008C888.039,618.795,689.244,420,444.02,420S0,618.795,0,864.02
		c0,245.22,198.791,444.02,444.015,444.02c90.154,0,173.978-26.945,244.008-73.111c1.161,1.299,2.028,2.761,3.275,4.008
		l234.628,234.628c35.246,35.242,92.388,35.242,127.639,0C1088.806,1438.318,1088.806,1381.176,1053.564,1345.93z M444.02,1154.112
		c-160.218,0-290.096-129.878-290.096-290.092c0-160.218,129.882-290.096,290.096-290.096c160.21,0,290.092,129.882,290.092,290.096
		S604.229,1154.112,444.02,1154.112z"/>
</g>
</svg>
