<svg version="1.1" xmlns:rdf="http://www.w3.org/1999/02/22-rdf-syntax-ns#" xmlns:dc="http://purl.org/dc/elements/1.1/" xmlns:svg="http://www.w3.org/2000/svg" xmlns="http://www.w3.org/2000/svg" xmlns:xlink="http://www.w3.org/1999/xlink" x="0px" y="0px" role="none" viewBox="0 0 50 57" enable-background="new 0 0 50 57" xml:space="preserve"><path d="M20.821,0c-2.962,0-5.363,2.402-5.363,5.364s2.401,5.363,5.363,5.363c2.961,0,5.363-2.401,5.363-5.363S23.782,0,20.821,0z M17.932,11.083c-3.158,0.007-3.741,1.995-3.741,3.622v19.138c0,1.645,1.325,2.975,2.969,2.969l13.597-0.06&#9;c0,0,4.681,7.089,7.026,10.628c0.703,1.061,1.638,1.999,2.988,1.999c1.781,0,3.421-1.453,3.226-3.226&#9;c-0.074-0.695-0.231-1.354-0.652-1.979c-2.091-3.117-6.234-9.859-8.511-12.39c-0.578-0.643-1.377-1.112-2.315-1.109l-11.242,0.04&#9;V18.802l8.016,5.542c1.156,0.797,2.726,0.502,3.522-0.653c0.798-1.156,0.504-2.725-0.653-3.523c0,0-8.335-5.75-12.508-8.629&#9;C19.22,11.239,18.418,11.083,17.932,11.083z M48.926,16.447c-0.193,0-0.387,0.069-0.535,0.217l-9.995,9.995H24.225&#9;c-0.418,0-0.751,0.334-0.751,0.752v0.277c0,0.419,0.333,0.752,0.751,0.752h14.567c0.226,0,0.445-0.088,0.573-0.217l10.292-10.292&#9;c0.295-0.296,0.295-0.773,0-1.069l-0.198-0.198C49.313,16.517,49.117,16.447,48.926,16.447z M12.766,21.672&#9;C5.423,23.879,0,30.721,0,38.949C0,48.995,8.121,57,17.892,57c7.486,0,14.004-4.687,16.645-11.4l-2.691-4.058&#9;c-1.22,6.446-6.914,11.421-13.953,11.421c-7.955,0-14.21-6.363-14.21-14.014c0-5.9,3.735-11.026,9.084-13.062V21.672z"/></svg>