<svg xmlns="http://www.w3.org/2000/svg" xmlns:xlink="http://www.w3.org/1999/xlink" version="1.1" id="Layer_1" x="0px" y="0px" viewBox="0 0 231.84987 21" style="enable-background:new 0 0 231.84987 21;" xml:space="preserve"><path d="M41.49989,5.896H25.71262v0.01232h-0.15984c-0.06268,0.00137-0.11237,0.05329-0.11101,0.11596  c0.00005,0.00232,0.00017,0.00464,0.00037,0.00696v8.96215c-0.00521,0.06247,0.04121,0.11734,0.10368,0.12255  c0.00232,0.00019,0.00464,0.00032,0.00696,0.00037h2.04077c0.06594-0.00448,0.11844-0.05698,0.12292-0.12292v-2.65546  c0.00014-0.06787,0.05513-0.12284,0.123-0.12295h13.66042c1.53316,0.0239,2.79717-1.19614,2.82754-2.72919V8.62521  C44.29705,7.09216,43.03305,5.87212,41.49989,5.896z M42.04082,9.4858c-0.03045,0.2698-0.27044,0.46614-0.54093,0.44254H27.83943  c-0.06402,0.00391-0.11908-0.04482-0.123-0.10883c-0.00029-0.00469-0.00029-0.0094,0-0.01409V8.30559  c-0.0039-0.06404,0.04486-0.1191,0.10889-0.123c0.0047-0.00029,0.00941-0.00029,0.01411,0h13.66046  c0.2705-0.0236,0.51049,0.17275,0.54093,0.44257V9.4858z"/><path d="M61.52447,11.90764l-0.418-0.45485c-0.0546-0.05629-0.05323-0.14619,0.00306-0.2008  c0.00296-0.00287,0.00604-0.0056,0.00923-0.0082c0.53818-0.50814,0.84472-1.21455,0.84824-1.9547v-0.627  c-0.02493-1.53734-1.29016-2.76408-2.82754-2.74151H46.0118c-0.07836-0.00311-0.14441,0.0579-0.14752,0.13626  c-0.00015,0.00376-0.00015,0.00752,0,0.01127v8.90065c-0.00312,0.07836,0.05788,0.14441,0.13625,0.14753  c0.00376,0.00015,0.00751,0.00015,0.01127,0h1.9916c0.07836,0.00309,0.1444-0.05792,0.14749-0.13629  c0.00015-0.00375,0.00015-0.0075,0-0.01124v-2.803c0.00225-0.07704,0.06653-0.13766,0.14357-0.13541  c0.00133,0.00004,0.00266,0.0001,0.00399,0.00017h10.17717c0.03974,0.00094,0.07829,0.01379,0.11064,0.03689l1.18019,1.30312  c0,0.01232,0.01229,0.02461,0.01229,0.03689c0.04292,0.06634,0.06831,0.14249,0.07378,0.22131v1.34  C59.85356,15.04976,59.91897,15.11521,60,15.1163h1.9916c0.08103-0.00106,0.14646-0.0665,0.14752-0.14753v-1.34  c-0.01479-0.56181-0.18964-1.10773-0.504-1.5736L61.52447,11.90764z M59.68039,9.28909  c-0.02884,0.27231-0.2677,0.47317-0.54092,0.45486h-10.841c-0.08104-0.00106-0.14649-0.06649-0.14756-0.14753V8.35473  c-0.00309-0.07836,0.05792-0.1444,0.13629-0.14749c0.00375-0.00015,0.00751-0.00015,0.01127,0h10.841  c0.27323-0.01833,0.5121,0.18254,0.54092,0.45486V9.28909z"/><path d="M68.90084,12.87882h-1.254c-0.06996-0.00611-0.12348-0.06497-0.12292-0.1352V8.2441  c0.00014-0.06783,0.05509-0.12278,0.12292-0.12292h1.14331c0.07-0.0061,0.12355-0.06498,0.123-0.13524V6.00666  c-0.00013-0.06788-0.05512-0.12287-0.123-0.123h-4.99121c-0.06404-0.00389-0.11911,0.04487-0.123,0.10891  c-0.00029,0.00469-0.00029,0.0094,0,0.01409v1.97928C63.67103,8.05557,63.7235,8.116,63.79313,8.1209  c0.00193,0.00014,0.00387,0.00023,0.00581,0.00028h1.36461c0.06783,0.00014,0.12277,0.05509,0.12292,0.12292v4.49952  c0.00056,0.07023-0.05296,0.12909-0.12292,0.1352h-1.36461c-0.06404-0.00389-0.11912,0.04489-0.123,0.10893  c-0.00028,0.00469-0.00028,0.00938,0,0.01407v1.9916c0.00015,0.06786,0.05515,0.12282,0.123,0.12292h5.1019  c0.06594-0.00448,0.11843-0.05698,0.12292-0.12292v-1.9916C69.02364,12.93397,68.96869,12.87898,68.90084,12.87882z"/><path d="M82.98753,5.896h-1.95471c-0.07441,0.00067-0.13457,0.06083-0.13524,0.13524v5.4953  c-0.00404,0.08223-0.07398,0.14561-0.15621,0.14157c-0.02282-0.00112-0.04508-0.00748-0.06506-0.01857L72.87182,6.818  c-0.03982-0.01798-0.06765-0.05509-0.07378-0.09835V6.01894c-0.00224-0.07703-0.06651-0.13765-0.14353-0.13541  c-0.00132,0.00004-0.00264,0.0001-0.00396,0.00017h-1.95471c-0.07703,0.00225-0.13766,0.06652-0.13541,0.14355  c0.00004,0.00133,0.0001,0.00265,0.00018,0.00398v8.94983c0.00064,0.07442,0.06081,0.1346,0.13524,0.13524h1.95471  c0.07692,0.00444,0.14288-0.05432,0.14732-0.13124c0.00008-0.00133,0.00014-0.00267,0.00018-0.004V9.57182  c0.00291-0.07939,0.06964-0.14139,0.14903-0.13847c0.02088,0.00077,0.04134,0.00607,0.05997,0.01555l7.80446,4.83143  c0.04499,0.01821,0.07426,0.0621,0.07378,0.11063c0,0.04918,0.01228,0.11067,0.01228,0.18442v0.40568  c0.00224,0.07703,0.06651,0.13766,0.14355,0.13541c0.00133-0.00004,0.00266-0.0001,0.00398-0.00017l1.94242-0.01229  c0.07704-0.00225,0.13766-0.06653,0.13541-0.14357c-0.00004-0.00132-0.00009-0.00263-0.00017-0.00395V6.03123  C83.12209,5.95683,83.06194,5.89668,82.98753,5.896z"/><path d="M91.64245,5.92059h-6.8722c-0.06085-0.00025-0.11039,0.04888-0.11064,0.10974c0,0.0003,0,0.0006,0,0.0009v1.9916  c-0.00025,0.06085,0.04888,0.11038,0.10973,0.11063c0.00031,0,0.00061,0,0.00092,0h2.1883  c0.06594,0.00448,0.11843,0.05698,0.12292,0.12292v6.74928c-0.00025,0.06086,0.04888,0.11039,0.10974,0.11064  c0.00031,0,0.00062,0,0.00093,0h1.99156c0.06085,0.00025,0.11039-0.04888,0.11064-0.10974c0-0.0003,0-0.0006,0-0.0009V8.25638  c0.00014-0.06784,0.05511-0.12279,0.12295-0.12292h2.22516c0.06084,0.00025,0.11037-0.04887,0.11063-0.10971  c0-0.00031,0-0.00061,0-0.00092v-1.9916c0.00025-0.06085-0.04887-0.11039-0.10972-0.11064  C91.64305,5.92059,91.64275,5.92059,91.64245,5.92059z"/><path d="M22.88492,10.2357c-0.08888-0.05627-0.19014-0.09003-0.295-0.09835l-19.6944-1.3769V8.699  C2.92267,8.385,3.1957,8.1502,3.51023,8.17036l19.17232,0.0028c0.06321,0.00025,0.11466-0.05078,0.11491-0.11399  c0-0.00031,0-0.00062,0-0.00093V6.0109c0.00026-0.0632-0.05076-0.11465-0.11397-0.11491c-0.00031,0-0.00063,0-0.00094,0H3.51023  C1.93565,5.87043,0.63762,7.12447,0.60891,8.699c-0.00973,0.81543,0.36913,1.58682,1.02039,2.07762  c0.09332,0.05642,0.19859,0.09011,0.30733,0.09835l19.68206,1.3769c0,0.02457,0.01228,0.03685,0.01228,0.04917  c-0.02896,0.31819-0.3085,0.55387-0.627,0.52864H3.51023l-0.49871-0.01547H1.42517  c-0.06281-0.00027-0.11394,0.05044-0.11421,0.11325c0,0.00032,0,0.00063,0,0.00095v2.056  c-0.00026,0.06282,0.05045,0.11395,0.11327,0.11421c0.00031,0,0.00063,0,0.00094,0l2.08506,0.0177H21.004  c1.57705,0.01985,2.87371-1.23838,2.9013-2.81532C23.91203,11.48968,23.5334,10.7233,22.88492,10.2357z"/><path d="M129.37183,5.8837h-2.20017c-0.95107-0.11212-1.81297,0.56799-1.92509,1.51906c-0.0159,0.13488-0.0159,0.27115,0,0.40603  v5.38242c-0.11204,0.95116,0.5682,1.81305,1.51936,1.92509c0.13478,0.01588,0.27095,0.01588,0.40573,0h2.20017  c0.95114,0.11204,1.81303-0.56819,1.92506-1.51934c0.01588-0.13478,0.01588-0.27097,0-0.40575v-1.16556h-1.27016v1.231  c0.04323,0.36254-0.21562,0.69147-0.57816,0.7347c-0.05597,0.00667-0.11255,0.00616-0.16838-0.00152h-2.00375  c-0.36005,0.04497-0.68839-0.21045-0.73337-0.5705c-0.00674-0.05402-0.00675-0.10866-0.00002-0.16268V7.74311  c-0.04486-0.36018,0.21075-0.68853,0.57093-0.73339c0.05395-0.00672,0.10851-0.00672,0.16246,0h2.00375  c0.36179-0.04969,0.69536,0.20331,0.74504,0.5651c0.00766,0.0558,0.00816,0.11236,0.0015,0.16829V8.66h1.27016V7.80879  c0.11217-0.95103-0.56787-1.81292-1.51891-1.92509C129.64307,5.86779,129.50674,5.86779,129.37183,5.8837z"/><path d="M151.39664,5.8837h-2.20016c-0.95108-0.11212-1.81297,0.56798-1.92509,1.51905c-0.0159,0.13488-0.0159,0.27116,0,0.40604  v5.38242c-0.11205,0.95116,0.56819,1.81305,1.51935,1.92509c0.13478,0.01588,0.27097,0.01588,0.40575,0h2.20016  c0.95114,0.11204,1.81303-0.56819,1.92506-1.51934c0.01588-0.13478,0.01588-0.27097,0-0.40575v-1.16556h-1.27016v1.231  c0.04323,0.36254-0.21562,0.69147-0.57816,0.7347c-0.05597,0.00667-0.11256,0.00616-0.16841-0.00152h-2.00372  c-0.36005,0.04497-0.68839-0.21045-0.73337-0.57051c-0.00674-0.05401-0.00674-0.10866-0.00002-0.16267V7.74311  c-0.04486-0.36018,0.21075-0.68853,0.57094-0.73339c0.05394-0.00672,0.10851-0.00672,0.16245,0h2.00374  c0.36179-0.0497,0.69537,0.2033,0.74507,0.56509c0.00766,0.05581,0.00816,0.11237,0.0015,0.1683V8.66h1.27016V7.80879  c0.11217-0.95103-0.56787-1.81292-1.51891-1.92509C151.66789,5.86779,151.53156,5.86779,151.39664,5.8837z"/><path d="M121.01757,13.23054c0.0481,0.36411-0.20806,0.69827-0.57217,0.74638c-0.05788,0.00765-0.11652,0.00764-0.1744-0.00003  h-2.14765c-0.35909,0.04682-0.68814-0.20632-0.73497-0.5654c-0.00784-0.0601-0.0073-0.121,0.00159-0.18095V5.936h-1.2965v7.25521  c-0.11199,0.95121,0.56834,1.8131,1.51954,1.92509c0.13471,0.01586,0.27082,0.01586,0.40553,0h2.37046  c0.95124,0.11206,1.81321-0.56823,1.92527-1.51947c0.01588-0.13474,0.01588-0.27088,0.00002-0.40562V5.936h-1.2967  L121.01757,13.23054z"/><polygon points="138.944,9.786 135.31599,9.786 135.31599,5.936 134.02,5.936 134.02,15.064 135.31599,15.064 135.31599,10.913   138.944,10.913 138.944,15.064 140.24001,15.064 140.24001,5.936 138.944,5.936 "/><path d="M111.23587,5.8837h-2.37042c-0.95113-0.11217-1.81311,0.56793-1.92529,1.51906  c-0.01591,0.13487-0.01591,0.27115-0.00002,0.40603v5.38242c-0.11195,0.95126,0.56844,1.81316,1.51969,1.92511  c0.13474,0.01586,0.27087,0.01585,0.40562-0.00002h2.37042c0.95122,0.11198,1.8131-0.56835,1.92509-1.51956  c0.01586-0.13471,0.01586-0.27081,0-0.40553V7.80879c0.11212-0.95108-0.56799-1.81297-1.51906-1.92509  C111.50702,5.8678,111.37074,5.8678,111.23587,5.8837z M111.86446,13.2567c0.04322,0.36254-0.21564,0.69148-0.57818,0.7347  c-0.05596,0.00667-0.11255,0.00616-0.16838-0.00152h-2.14766c-0.37101,0.03642-0.70129-0.23482-0.73771-0.60583  c-0.00546-0.05552-0.004-0.11151,0.00433-0.16667V7.74311c-0.04487-0.36017,0.21074-0.68852,0.57091-0.73339  c0.05396-0.00672,0.10853-0.00672,0.16248,0h2.14766c0.35835-0.05307,0.69188,0.1944,0.74495,0.55275  c0.00887,0.05985,0.00941,0.12064,0.00161,0.18064V13.2567z"/><path d="M102.42332,5.8837h-2.20016c-0.95107-0.11212-1.81297,0.56799-1.92509,1.51906c-0.0159,0.13488-0.0159,0.27115,0,0.40603  v5.38242c-0.11204,0.95116,0.5682,1.81305,1.51936,1.92509c0.13478,0.01588,0.27095,0.01588,0.40573,0h2.20016  c0.95122,0.11198,1.8131-0.56835,1.92509-1.51956c0.01586-0.13471,0.01586-0.27081,0-0.40553v-1.16556h-1.27035v1.231  c0.04322,0.36254-0.21564,0.69148-0.57818,0.7347c-0.05597,0.00667-0.11256,0.00616-0.1684-0.00152H100.328  c-0.36005,0.04497-0.68839-0.21045-0.73336-0.57051c-0.00674-0.05401-0.00675-0.10866-0.00002-0.16267V7.74311  c-0.04487-0.36017,0.21074-0.68852,0.57091-0.73339c0.05396-0.00672,0.10853-0.00672,0.16248,0h2.00353  c0.36179-0.0497,0.69538,0.2033,0.74508,0.56509c0.00767,0.05581,0.00817,0.11236,0.0015,0.1683V8.66h1.27035V7.80879  c0.11213-0.95108-0.56798-1.81297-1.51905-1.9251C102.69452,5.86779,102.55821,5.86779,102.42332,5.8837z"/><polygon points="227.423,13.951 227.423,10.886 231.418,10.886 231.418,9.799 227.423,9.799 227.423,7.049 231.745,7.049   231.745,5.936 226.127,5.936 226.127,15.064 231.85001,15.064 231.85001,13.951 "/><polygon points="174.45599,15.064 175.752,15.064 175.752,11.24 179.87801,11.24 179.87801,10.127 175.752,10.127 175.752,7.049   180.205,7.049 180.205,5.936 174.45599,5.936 "/><polygon points="213.164,12.68 209.353,5.936 208.13499,5.936 208.13499,15.064 209.34,15.064 209.34,8.319 213.177,15.064   214.356,15.064 214.356,5.936 213.164,5.936 "/><polygon points="183.96201,10.886 187.957,10.886 187.957,9.799 183.96201,9.799 183.96201,7.049 188.284,7.049 188.284,5.936   182.666,5.936 182.666,15.064 188.38901,15.064 188.38901,13.951 183.96201,13.951 "/><path d="M196.97931,9.5111v-1.65c0.11205-0.95115-0.56818-1.81305-1.51932-1.9251c-0.1348-0.01588-0.27098-0.01588-0.40578,0  h-4.03362v9.12779h1.29649v-3.6276h2.069l1.21805,3.6276h1.38812l-1.29649-3.69308  C196.53371,11.16663,197.08566,10.36695,196.97931,9.5111z M195.68282,9.57657c0.04965,0.36184-0.20343,0.69542-0.56528,0.74507  c-0.05574,0.00765-0.11223,0.00815-0.16811,0.0015h-2.63232V7.049h2.63232c0.36017-0.04486,0.68852,0.21074,0.73338,0.57091  c0.00673,0.05395,0.00673,0.10853,0,0.16249V9.57657z"/><path d="M160.20938,5.8837h-2.37044c-0.95103-0.11215-1.81291,0.5679-1.92506,1.51893c-0.01591,0.13492-0.01591,0.27124,0,0.40616  v5.38242c-0.11205,0.95115,0.56818,1.81304,1.51932,1.92509c0.13478,0.01588,0.27097,0.01588,0.40575,0h2.37044  c0.95122,0.11199,1.81311-0.56834,1.92509-1.51956c0.01585-0.13471,0.01585-0.27082,0-0.40553V7.80879  c0.11212-0.95108-0.56798-1.81297-1.51906-1.92509C160.48055,5.8678,160.34425,5.8678,160.20938,5.8837z M160.83797,13.2567  c0.04323,0.36254-0.21564,0.69148-0.57819,0.7347c-0.05595,0.00667-0.11255,0.00616-0.16838-0.00152h-2.14767  c-0.37097,0.03644-0.70125-0.23475-0.73769-0.60573c-0.00546-0.05556-0.004-0.11158,0.00433-0.16677V7.74311  c-0.04488-0.36016,0.21071-0.68851,0.57086-0.73339c0.05396-0.00672,0.10854-0.00672,0.16249,0h2.14767  c0.35835-0.05307,0.69188,0.19441,0.74496,0.55277c0.00885,0.05985,0.0094,0.12063,0.0016,0.18062V13.2567z"/><path d="M221.47874,5.8837h-2.20016c-0.95108-0.11212-1.81297,0.56798-1.92509,1.51905c-0.0159,0.13488-0.0159,0.27116,0,0.40604  v5.38242c-0.11205,0.95116,0.56819,1.81305,1.51935,1.92509c0.13478,0.01588,0.27097,0.01588,0.40575,0h2.20016  c0.95114,0.11204,1.81303-0.56819,1.92506-1.51934c0.01588-0.13478,0.01588-0.27097,0-0.40575v-1.16556h-1.27014v1.231  c0.04323,0.36254-0.21562,0.69147-0.57816,0.7347c-0.05597,0.00667-0.11256,0.00616-0.16841-0.00152h-2.00374  c-0.36006,0.04485-0.68832-0.21068-0.73317-0.57075c-0.00671-0.05393-0.00671-0.10849,0-0.16243V7.74311  c-0.04489-0.36013,0.21065-0.68847,0.57079-0.73337c0.05391-0.00672,0.10846-0.00673,0.16238-0.00002h2.00374  c0.36179-0.0497,0.69537,0.2033,0.74507,0.56509c0.00766,0.05581,0.00816,0.11237,0.0015,0.1683V8.66h1.27014V7.80879  c0.11217-0.95103-0.56787-1.81292-1.51891-1.92509C221.74998,5.86779,221.61366,5.86779,221.47874,5.8837z"/><polygon points="201.077,10.886 205.07201,10.886 205.07201,9.799 201.077,9.799 201.077,7.049 205.399,7.049 205.399,5.936   199.78101,5.936 199.78101,15.064 205.504,15.064 205.504,13.951 201.077,13.951 "/><polygon points="170.13499,12.68 166.32401,5.936 165.106,5.936 165.106,15.064 166.311,15.064 166.311,8.319 170.14799,15.064   171.327,15.064 171.327,5.936 170.13499,5.936 "/></svg>